<?xml version="1.0" standalone="no"?>
<!DOCTYPE svg PUBLIC "-//W3C//DTD SVG 20010904//EN"
 "http://www.w3.org/TR/2001/REC-SVG-20010904/DTD/svg10.dtd">
<svg version="1.0" xmlns="http://www.w3.org/2000/svg"
 width="1167.000000pt" height="1167.000000pt" viewBox="0 0 1167.000000 1167.000000"
 preserveAspectRatio="xMidYMid meet">
<metadata>
Created by potrace 1.11, written by Peter Selinger 2001-2013
</metadata>
<g transform="translate(0.000000,1167.000000) scale(0.100000,-0.100000)"
fill="#000000" stroke="none">
<path d="M5695 7644 c-221 -48 -298 -85 -405 -192 -125 -127 -197 -295 -227
-537 -11 -81 -10 -1262 0 -1348 21 -176 75 -332 158 -454 112 -166 322 -269
565 -277 264 -8 443 52 589 199 117 118 181 254 222 469 16 80 18 164 18 716
0 344 -4 657 -8 695 -14 120 -54 264 -102 363 -38 76 -61 109 -123 171 -139
139 -277 191 -522 196 -80 2 -154 1 -165 -1z m237 -440 c61 -32 97 -84 124
-181 15 -51 17 -143 18 -748 2 -625 -1 -731 -18 -816 -19 -88 -85 -172 -149
-190 -50 -13 -114 -14 -148 0 -44 16 -100 73 -121 121 -42 96 -45 153 -43 871
2 376 5 698 9 714 26 120 69 195 126 225 59 31 146 33 202 4z"/>
<path d="M0 6244 c0 -745 3 -1354 8 -1355 45 -4 718 0 779 5 165 14 325 72
424 153 155 128 237 355 233 643 -3 246 -60 405 -190 532 -49 49 -147 106
-219 128 -43 13 -68 30 -46 30 31 0 182 85 234 130 76 68 121 152 142 265 7
38 7 241 0 275 -2 14 -7 39 -11 55 -22 117 -85 243 -151 307 -80 77 -210 138
-353 164 -89 16 -203 21 -507 22 l-343 1 0 -1355z m753 962 c91 -40 121 -116
121 -311 0 -259 -63 -352 -250 -363 l-84 -4 0 352 0 353 90 -6 c50 -4 105 -13
123 -21z m-58 -1047 c72 -19 132 -68 164 -134 42 -85 53 -142 57 -295 7 -334
-64 -445 -293 -454 -32 -1 -63 -1 -70 2 -9 3 -12 115 -11 448 l0 444 56 0 c32
0 75 -5 97 -11z"/>
<path d="M10227 7592 c-3 -6 -2 -2672 2 -2697 2 -19 850 -9 881 10 4 3 25 7
46 11 107 17 235 85 319 169 135 135 194 324 191 609 -3 184 -17 257 -74 375
-49 100 -142 194 -243 244 -41 20 -89 40 -107 43 -18 4 -32 9 -32 13 0 4 30
20 68 36 218 94 311 231 317 470 2 61 -1 140 -6 178 -21 144 -84 283 -164 362
-76 73 -232 145 -351 161 -27 3 -58 9 -69 11 -33 9 -774 14 -778 5z m738 -378
c62 -23 109 -80 120 -145 3 -19 9 -47 13 -64 17 -68 0 -252 -29 -331 -37 -99
-107 -141 -234 -140 l-70 1 -1 340 c0 187 2 344 4 349 5 9 166 1 197 -10z m11
-1077 c68 -35 107 -86 138 -182 46 -144 37 -444 -16 -549 -47 -93 -105 -121
-260 -130 -64 -4 -68 -3 -69 17 -1 31 -1 838 0 861 1 17 7 18 79 13 56 -3 92
-12 128 -30z"/>
<path d="M4729 4178 c-1 -2 -2 -38 -3 -80 l-2 -78 1111 0 1111 0 -2 73 c-1 39
-2 75 -3 80 -1 6 -2209 11 -2212 5z"/>
</g>
</svg>
