<?xml version="1.0" standalone="no"?>
<!DOCTYPE svg PUBLIC "-//W3C//DTD SVG 20010904//EN"
 "http://www.w3.org/TR/2001/REC-SVG-20010904/DTD/svg10.dtd">
<svg version="1.0" xmlns="http://www.w3.org/2000/svg"
 width="158.000000pt" height="158.000000pt" viewBox="0 0 158.000000 158.000000"
 preserveAspectRatio="xMidYMid meet">
<metadata>
Created by potrace 1.11, written by Peter Selinger 2001-2013
</metadata>
<g transform="translate(0.000000,158.000000) scale(0.100000,-0.100000)"
fill="#000000" stroke="none">
<path d="M419 1050 c-24 -20 -24 -20 -5 -35 37 -28 126 -14 126 21 0 34 -86
44 -121 14z"/>
<path d="M545 989 c-50 -23 -96 -24 -152 -3 -40 16 -46 16 -90 -1 -138 -52
-235 -154 -282 -293 -28 -82 -27 -88 12 -90 99 -2 287 -30 402 -59 33 -8 69
-17 80 -20 11 -2 59 -6 108 -8 88 -3 220 18 279 45 l27 13 -21 31 c-67 95
-192 166 -326 184 -90 12 -244 4 -275 -15 -6 -3 -7 -1 -3 5 6 10 31 19 106 39
8 3 52 7 97 10 65 4 96 1 150 -15 101 -31 201 -99 270 -184 l32 -40 -4 35 c-8
61 -45 144 -90 204 -24 32 -50 63 -57 68 -63 50 -93 68 -151 90 -37 14 -68 25
-70 24 -1 0 -20 -9 -42 -20z"/>
<path d="M1182 843 c-91 -27 -174 -119 -197 -217 -6 -28 -4 -27 49 22 91 83
205 111 311 78 38 -13 37 -13 -36 -8 -120 7 -246 -41 -292 -112 -20 -30 -15
-34 60 -52 64 -15 168 -11 248 10 58 15 80 18 195 31 30 4 57 8 59 10 11 12
-37 112 -74 153 -77 86 -206 119 -323 85z"/>
</g>
</svg>
