<svg xmlns="http://www.w3.org/2000/svg" viewBox="0 0 83.69 25.73"><defs><style>.cls-1{fill:#000000;}</style></defs><title>footer Logo</title><g id="Layer_2" data-name="Layer 2"><g id="Layer_1-2" data-name="Layer 1"><path class="cls-1" d="M36.23,13.27V6.81Q36.23,0,41.84,0t5.62,6.81v6.36a12.36,12.36,0,0,1-.17,2.13,7.28,7.28,0,0,1-.58,1.85,5,5,0,0,1-1,1.49,4.45,4.45,0,0,1-1.61,1,7.19,7.19,0,0,1-4.43,0,4.52,4.52,0,0,1-1.6-.94,4.81,4.81,0,0,1-1-1.45,7.21,7.21,0,0,1-.59-1.83A12,12,0,0,1,36.23,13.27Zm7.35.88V5.84Q43.58,3,41.84,3a1.47,1.47,0,0,0-.89.26,1.51,1.51,0,0,0-.53.72,4.52,4.52,0,0,0-.24.9,6.26,6.26,0,0,0-.07,1v8.3q0,2.83,1.73,2.83T43.58,14.14Z"/><path class="cls-1" d="M0,19.58V.37H4A14,14,0,0,1,5.84.49a6.47,6.47,0,0,1,1.6.44,3.64,3.64,0,0,1,1.29.87,3.94,3.94,0,0,1,.81,1.43,6.53,6.53,0,0,1,.3,2.11A3.63,3.63,0,0,1,9.14,7.7a4.71,4.71,0,0,1-2.2,1.37q3.43.83,3.43,4.85A5.83,5.83,0,0,1,9,18.2a5.77,5.77,0,0,1-4.24,1.39ZM3.86,7.93h.66a1.81,1.81,0,0,0,.9-.2A1.31,1.31,0,0,0,6,7.13a3.13,3.13,0,0,0,.26-.84,6.56,6.56,0,0,0,.07-1.06,4.54,4.54,0,0,0-.07-.84,4.24,4.24,0,0,0-.15-.6.91.91,0,0,0-.29-.41,2.21,2.21,0,0,0-.36-.25A1.43,1.43,0,0,0,5,3L4.46,3h-.6Zm0,8.91h.36a3.56,3.56,0,0,0,1.23-.18,1.34,1.34,0,0,0,.72-.6,2.72,2.72,0,0,0,.33-1,10.29,10.29,0,0,0,.08-1.45,4.36,4.36,0,0,0-.53-2.34,2,2,0,0,0-1.8-.83H3.88Z"/><path class="cls-1" d="M73.33,19.58V.37h4a14,14,0,0,1,1.88.11,6.47,6.47,0,0,1,1.6.44,3.64,3.64,0,0,1,1.29.87,3.94,3.94,0,0,1,.81,1.43,6.53,6.53,0,0,1,.3,2.11,3.63,3.63,0,0,1-.71,2.37,4.71,4.71,0,0,1-2.2,1.37q3.43.83,3.43,4.85A5.83,5.83,0,0,1,82.3,18.2a5.77,5.77,0,0,1-4.24,1.39ZM77.19,7.93h.66a1.81,1.81,0,0,0,.9-.2,1.31,1.31,0,0,0,.55-.59,3.13,3.13,0,0,0,.26-.84,6.56,6.56,0,0,0,.07-1.06,4.54,4.54,0,0,0-.07-.84,4.24,4.24,0,0,0-.15-.6.91.91,0,0,0-.29-.41,2.21,2.21,0,0,0-.36-.25A1.43,1.43,0,0,0,78.3,3l-.51,0h-.6Zm0,8.91h.36a3.56,3.56,0,0,0,1.23-.18,1.34,1.34,0,0,0,.72-.6,2.72,2.72,0,0,0,.33-1,10.29,10.29,0,0,0,.08-1.45,4.36,4.36,0,0,0-.53-2.34,2,2,0,0,0-1.8-.83h-.38Z"/><rect class="cls-1" x="33.89" y="24.61" width="15.92" height="1.12"/></g></g></svg>