<svg xmlns="http://www.w3.org/2000/svg" xmlns:xlink="http://www.w3.org/1999/xlink" viewBox="0 0 559.07 243.53"><defs><style>.cls-1{fill:white;}.cls-2{clip-path:url(#clip-path);}</style><clipPath id="clip-path" transform="translate(0 0)"><rect class="cls-1" width="559.07" height="243.54"/></clipPath></defs><title>logo-white</title><g id="Layer_2" data-name="Layer 2"><g id="Layer_1-2" data-name="Layer 1"><g class="cls-2"><path class="cls-1" d="M241.67,88.49V45.42Q241.67,0,279.11,0t37.52,45.42V87.85a82.4,82.4,0,0,1-1.14,14.2,48.61,48.61,0,0,1-3.88,12.35,33.27,33.27,0,0,1-7,9.93,29.66,29.66,0,0,1-10.71,6.45,48,48,0,0,1-29.55,0,30.17,30.17,0,0,1-10.68-6.26,32.09,32.09,0,0,1-6.94-9.68,48,48,0,0,1-3.92-12.21,79.66,79.66,0,0,1-1.17-14.17m49,5.84V38.94q0-18.94-11.6-18.94a9.82,9.82,0,0,0-5.91,1.74,10,10,0,0,0-3.56,4.77,30.26,30.26,0,0,0-1.61,6,41.85,41.85,0,0,0-.46,6.45V94.33q0,18.87,11.53,18.86t11.6-18.86" transform="translate(0 0)"/><path class="cls-1" d="M0,130.64V2.49H26.42A93.15,93.15,0,0,1,39,3.24,43.16,43.16,0,0,1,49.66,6.16,24.31,24.31,0,0,1,58.27,12a26.29,26.29,0,0,1,5.41,9.57,43.57,43.57,0,0,1,2,14.06q0,10-4.73,15.8t-14.7,9.12q22.85,5.55,22.85,32.32,0,19.29-9.25,28.55t-28.26,9.25ZM25.78,52.89h4.41a12.06,12.06,0,0,0,6-1.35,8.73,8.73,0,0,0,3.67-4A20.87,20.87,0,0,0,41.58,42a43.72,43.72,0,0,0,.5-7,30.32,30.32,0,0,0-.46-5.63,28.24,28.24,0,0,0-1-4,6.07,6.07,0,0,0-1.92-2.71A14.83,14.83,0,0,0,36.27,21a9.55,9.55,0,0,0-3.13-.78c-1.4-.16-2.53-.26-3.38-.28s-2.18,0-4,0Zm.14,59.45h2.42a23.76,23.76,0,0,0,8.18-1.18,8.92,8.92,0,0,0,4.77-4,18.12,18.12,0,0,0,2.17-6.44A68.52,68.52,0,0,0,44,91.05q0-10-3.53-15.59t-12-5.55H25.92Z" transform="translate(0 0)"/><path class="cls-1" d="M489.16,130.64V2.49h26.41a93.14,93.14,0,0,1,12.57.75,43.17,43.17,0,0,1,10.68,2.92,24.31,24.31,0,0,1,8.61,5.8,26.27,26.27,0,0,1,5.41,9.57,43.6,43.6,0,0,1,2,14.06q0,10-4.73,15.8t-14.7,9.12q22.86,5.55,22.85,32.32,0,19.29-9.25,28.55t-28.27,9.25Zm25.78-77.74h4.41a12.07,12.07,0,0,0,6-1.35,8.74,8.74,0,0,0,3.67-4A20.9,20.9,0,0,0,530.75,42a43.74,43.74,0,0,0,.49-7,30.33,30.33,0,0,0-.46-5.63,28.11,28.11,0,0,0-1-4,6.06,6.06,0,0,0-1.92-2.71A14.69,14.69,0,0,0,525.44,21a9.55,9.55,0,0,0-3.13-.78c-1.4-.16-2.53-.26-3.38-.28s-2.18,0-4,0Zm.14,59.45h2.42a23.77,23.77,0,0,0,8.18-1.18,8.93,8.93,0,0,0,4.77-4,18.14,18.14,0,0,0,2.17-6.44,68.68,68.68,0,0,0,.54-9.65q0-10-3.53-15.59t-12-5.55h-2.56Z" transform="translate(0 0)"/><rect class="cls-1" x="226.05" y="164.18" width="106.19" height="7.49"/><path class="cls-1" d="M22,210.76c0,3.73-1.78,6.41-4.73,7.18,3.67.68,5.82,3.68,5.82,8,0,5.41-3.42,8.64-9.21,8.64H3.05V202.81H13.79c5.13,0,8.26,3,8.26,8m-3,.55c0-3.27-2-5.14-5.42-5.14H6v10.41h7.68c3.42,0,5.42-1.91,5.42-5.27m1.13,14.23c0-3.55-2.4-5.64-6.55-5.59H6v11.32h7.68c4.15,0,6.55-2,6.55-5.73" transform="translate(0 0)"/><path class="cls-1" d="M44.6,210.58V214c-4-.09-6.55,3-6.88,7.87v12.73H34.89V210.72h2.84V216c1.27-3.5,3.64-5.41,6.88-5.46" transform="translate(0 0)"/><path class="cls-1" d="M72.11,222.63c0,7.14-4,12.14-9.72,12.14s-9.72-5-9.72-12.14,4-12,9.72-12,9.72,5,9.72,12m-16.59,0c0,5.36,2.84,9,6.88,9s6.88-3.64,6.88-9-2.87-9-6.88-9-6.88,3.68-6.88,9" transform="translate(0 0)"/><polygon class="cls-1" points="90.33 222.49 86.29 227.72 86.29 234.63 83.45 234.63 83.45 200.89 86.29 200.89 86.29 223.13 96.15 210.72 99.5 210.72 92.33 219.94 100.26 234.63 96.88 234.63 90.33 222.49"/><path class="cls-1" d="M126,224H110.34c.47,4.73,3.2,7.82,7,7.82a7.32,7.32,0,0,0,5.93-3l1.57,2a9.31,9.31,0,0,1-7.72,4c-5.64,0-9.53-5-9.53-12.1s3.93-12,9.5-12.09c6.19,0,9.25,5.32,9,13.41m-2.55-2.82c-.18-4.64-2.66-7.64-6.41-7.64s-6.3,3-6.69,7.64Z" transform="translate(0 0)"/><path class="cls-1" d="M146.76,210.58V214c-4-.09-6.55,3-6.88,7.87v12.73H137V210.72h2.84V216c1.27-3.5,3.64-5.41,6.88-5.46" transform="translate(0 0)"/><path class="cls-1" d="M167.75,234.63V230.9a7.69,7.69,0,0,1-7,3.86c-4,0-6.51-3.14-6.51-7.23s2.66-6.82,7.17-6.87h6.3v-1.5c0-3.5-1.75-5.64-5.13-5.64-2.11,0-4.07,1-6.08,2.77l-1.2-2.5c2.48-2,4.55-3.23,7.82-3.23,4.73,0,7.35,3.14,7.39,8.23l0,15.82Zm0-8.23v-2.91h-6c-3.2,0-4.87,1.23-4.87,3.91a4.14,4.14,0,0,0,4.4,4.41,6.37,6.37,0,0,0,6.44-5.41" transform="translate(0 0)"/><path class="cls-1" d="M199.73,210.72v21.41c0,7-3.82,11.41-9.64,11.41a11.25,11.25,0,0,1-7.86-3.5l1.31-2.59a8.81,8.81,0,0,0,6.44,3c4.18,0,6.91-3.23,6.91-8.27v-3.64c-1.35,3.19-3.82,5-7.06,5-5.17,0-8.74-4.77-8.74-11.55s3.53-11.41,8.66-11.46c3.28,0,5.75,1.82,7.13,5v-4.86Zm-2.84,11.41c0-5-2.73-8.59-6.55-8.59s-6.55,3.59-6.59,8.59,2.73,8.55,6.59,8.55,6.55-3.59,6.55-8.55" transform="translate(0 0)"/><path class="cls-1" d="M228.87,224H213.22c.47,4.73,3.2,7.82,7,7.82a7.32,7.32,0,0,0,5.93-3l1.57,2a9.31,9.31,0,0,1-7.71,4c-5.64,0-9.54-5-9.54-12.1s3.93-12,9.5-12.09c6.19,0,9.25,5.32,9,13.41m-2.55-2.82c-.18-4.64-2.66-7.64-6.41-7.64s-6.3,3-6.69,7.64Z" transform="translate(0 0)"/><path class="cls-1" d="M274.53,222.63c0,7.14-4,12.14-9.71,12.14s-9.72-5-9.72-12.14,4-12,9.72-12,9.71,5,9.71,12m-16.59,0c0,5.36,2.84,9,6.88,9s6.88-3.64,6.88-9-2.87-9-6.88-9-6.88,3.68-6.88,9" transform="translate(0 0)"/><path class="cls-1" d="M303.23,219.9v14.73h-2.84V220.81c0-4.27-2-6.82-5.42-6.82-3.79,0-6.11,3.18-6.44,7.82v12.82h-2.84V210.72h2.84V216c1.35-3.64,3.93-5.36,7.42-5.41,4.59,0,7.28,3.5,7.28,9.32" transform="translate(0 0)"/><path class="cls-1" d="M352.23,210.76c0,3.73-1.78,6.41-4.73,7.18,3.68.68,5.82,3.68,5.82,8,0,5.41-3.42,8.64-9.21,8.64H333.24V202.81H344c5.13,0,8.26,3,8.26,8m-3,.55c0-3.27-2-5.14-5.42-5.14h-7.68v10.41h7.68c3.42,0,5.42-1.91,5.42-5.27m1.13,14.23c0-3.55-2.4-5.64-6.55-5.59h-7.68v11.32h7.68c4.15,0,6.55-2,6.55-5.73" transform="translate(0 0)"/><path class="cls-1" d="M374.78,210.58V214c-4-.09-6.55,3-6.88,7.87v12.73h-2.84V210.72h2.84V216c1.27-3.5,3.64-5.41,6.88-5.46" transform="translate(0 0)"/><path class="cls-1" d="M402.29,222.63c0,7.14-4,12.14-9.71,12.14s-9.72-5-9.72-12.14,4-12,9.72-12,9.71,5,9.71,12m-16.59,0c0,5.36,2.84,9,6.88,9s6.88-3.64,6.88-9-2.87-9-6.88-9-6.88,3.68-6.88,9" transform="translate(0 0)"/><polygon class="cls-1" points="420.51 222.49 416.47 227.72 416.47 234.63 413.63 234.63 413.63 200.89 416.47 200.89 416.47 223.13 426.33 210.72 429.68 210.72 422.51 219.94 430.45 234.63 427.06 234.63 420.51 222.49"/><path class="cls-1" d="M456.17,224H440.52c.47,4.73,3.2,7.82,7,7.82a7.32,7.32,0,0,0,5.93-3l1.57,2a9.31,9.31,0,0,1-7.72,4c-5.64,0-9.53-5-9.53-12.1s3.93-12,9.5-12.09c6.19,0,9.24,5.32,9,13.41m-2.55-2.82c-.18-4.64-2.66-7.64-6.41-7.64s-6.3,3-6.7,7.64Z" transform="translate(0 0)"/><path class="cls-1" d="M476.94,210.58V214c-4-.09-6.55,3-6.88,7.87v12.73h-2.84V210.72h2.84V216c1.27-3.5,3.64-5.41,6.88-5.46" transform="translate(0 0)"/><path class="cls-1" d="M497.93,234.63V230.9a7.69,7.69,0,0,1-7,3.86c-4,0-6.51-3.14-6.51-7.23s2.66-6.82,7.17-6.87h6.3v-1.5c0-3.5-1.75-5.64-5.13-5.64-2.11,0-4.07,1-6.08,2.77l-1.2-2.5c2.47-2,4.55-3.23,7.82-3.23,4.73,0,7.35,3.14,7.39,8.23l0,15.82Zm0-8.23v-2.91h-6c-3.2,0-4.87,1.23-4.87,3.91a4.14,4.14,0,0,0,4.4,4.41,6.37,6.37,0,0,0,6.44-5.41" transform="translate(0 0)"/><path class="cls-1" d="M529.91,210.72v21.41c0,7-3.82,11.41-9.64,11.41a11.25,11.25,0,0,1-7.86-3.5l1.31-2.59a8.81,8.81,0,0,0,6.44,3c4.18,0,6.91-3.23,6.91-8.27v-3.64c-1.35,3.19-3.82,5-7.06,5-5.17,0-8.73-4.77-8.73-11.55s3.53-11.41,8.66-11.46c3.28,0,5.75,1.82,7.13,5v-4.86Zm-2.84,11.41c0-5-2.73-8.59-6.55-8.59s-6.55,3.59-6.59,8.59,2.73,8.55,6.59,8.55,6.55-3.59,6.55-8.55" transform="translate(0 0)"/><path class="cls-1" d="M559,224H543.4c.47,4.73,3.2,7.82,7,7.82a7.32,7.32,0,0,0,5.93-3l1.57,2a9.31,9.31,0,0,1-7.72,4c-5.64,0-9.53-5-9.53-12.1s3.93-12,9.5-12.09c6.18,0,9.24,5.32,9,13.41m-2.55-2.82c-.18-4.64-2.66-7.64-6.41-7.64s-6.3,3-6.7,7.64Z" transform="translate(0 0)"/></g></g></g></svg>