<svg xmlns="http://www.w3.org/2000/svg" viewBox="0 0 15.92 25.73"><defs><style>.cls-1{fill:#000000;}</style></defs><title>Logo O</title><g id="Layer_2" data-name="Layer 2"><g id="Layer_1-2" data-name="Layer 1"><path class="cls-1" d="M2.34,13.26V6.81Q2.34,0,8,0t5.62,6.81v6.36a12.37,12.37,0,0,1-.17,2.13,7.3,7.3,0,0,1-.58,1.85,5,5,0,0,1-1,1.49,4.45,4.45,0,0,1-1.6,1A6.46,6.46,0,0,1,8,20a6.55,6.55,0,0,1-2.21-.35,4.53,4.53,0,0,1-1.6-.94,4.82,4.82,0,0,1-1-1.45,7.19,7.19,0,0,1-.59-1.83,12,12,0,0,1-.18-2.12m7.35.88V5.84Q9.69,3,8,3a1.48,1.48,0,0,0-.89.26A1.5,1.5,0,0,0,6.53,4a4.54,4.54,0,0,0-.24.9,6.31,6.31,0,0,0-.07,1v8.3Q6.22,17,8,17t1.74-2.83"/><rect class="cls-1" y="24.61" width="15.92" height="1.12"/></g></g></svg>