<svg id="Layer_1" data-name="Layer 1" xmlns="http://www.w3.org/2000/svg" xmlns:xlink="http://www.w3.org/1999/xlink" viewBox="0 0 83.69 25.73"><defs><style>.cls-1{fill:none;}.cls-2{clip-path:url(#clip-path);}.cls-3{fill:#fff;}</style><clipPath id="clip-path"><rect class="cls-1" width="83.69" height="25.73"/></clipPath></defs><title>title-logo</title><g class="cls-2"><path class="cls-3" d="M36.23,13.27V6.81Q36.23,0,41.84,0t5.62,6.81v6.36a12.37,12.37,0,0,1-.17,2.13,7.3,7.3,0,0,1-.58,1.85,5,5,0,0,1-1,1.49,4.45,4.45,0,0,1-1.6,1,6.46,6.46,0,0,1-2.22.35,6.55,6.55,0,0,1-2.21-.35,4.53,4.53,0,0,1-1.6-.94,4.82,4.82,0,0,1-1-1.45,7.19,7.19,0,0,1-.59-1.83,12,12,0,0,1-.18-2.12m7.35.88V5.84Q43.58,3,41.84,3a1.48,1.48,0,0,0-.89.26,1.5,1.5,0,0,0-.53.72,4.54,4.54,0,0,0-.24.9,6.31,6.31,0,0,0-.07,1v8.3q0,2.83,1.73,2.83t1.74-2.83"/><path class="cls-3" d="M0,19.58V.37H4A14,14,0,0,1,5.84.49a6.46,6.46,0,0,1,1.6.44,3.64,3.64,0,0,1,1.29.87,4,4,0,0,1,.81,1.43,6.54,6.54,0,0,1,.3,2.11A3.62,3.62,0,0,1,9.14,7.7a4.71,4.71,0,0,1-2.2,1.37q3.43.83,3.43,4.85A5.83,5.83,0,0,1,9,18.2a5.77,5.77,0,0,1-4.24,1.39ZM3.86,7.93h.66a1.82,1.82,0,0,0,.9-.2A1.31,1.31,0,0,0,6,7.13a3.12,3.12,0,0,0,.26-.84,6.5,6.5,0,0,0,.07-1.06,4.56,4.56,0,0,0-.07-.84,4.26,4.26,0,0,0-.15-.6.92.92,0,0,0-.29-.41,2.14,2.14,0,0,0-.36-.25A1.43,1.43,0,0,0,5,3L4.46,3h-.6Zm0,8.91h.36a3.57,3.57,0,0,0,1.23-.18,1.34,1.34,0,0,0,.72-.6,2.69,2.69,0,0,0,.33-1,10.18,10.18,0,0,0,.08-1.45,4.36,4.36,0,0,0-.53-2.34,2,2,0,0,0-1.8-.83H3.88Z"/><path class="cls-3" d="M73.33,19.58V.37h4a14,14,0,0,1,1.88.11,6.46,6.46,0,0,1,1.6.44,3.64,3.64,0,0,1,1.29.87,3.93,3.93,0,0,1,.81,1.43,6.52,6.52,0,0,1,.31,2.11,3.62,3.62,0,0,1-.71,2.37,4.71,4.71,0,0,1-2.2,1.37q3.43.83,3.43,4.85A5.83,5.83,0,0,1,82.3,18.2a5.77,5.77,0,0,1-4.24,1.39ZM77.19,7.93h.66a1.82,1.82,0,0,0,.9-.2,1.31,1.31,0,0,0,.55-.59,3.12,3.12,0,0,0,.26-.84,6.62,6.62,0,0,0,.07-1.06,4.56,4.56,0,0,0-.07-.84,4.11,4.11,0,0,0-.15-.6.91.91,0,0,0-.29-.41,2.14,2.14,0,0,0-.36-.25A1.43,1.43,0,0,0,78.29,3l-.51,0h-.6Zm0,8.91h.36a3.57,3.57,0,0,0,1.23-.18,1.33,1.33,0,0,0,.71-.6,2.69,2.69,0,0,0,.33-1,10.18,10.18,0,0,0,.08-1.45,4.36,4.36,0,0,0-.53-2.34,2,2,0,0,0-1.8-.83h-.38Z"/><rect class="cls-3" x="33.89" y="24.61" width="15.92" height="1.12"/></g></svg>